<svg xmlns="http://www.w3.org/2000/svg" viewBox="0 0 3300 25">
  <path d="M3285 5.3c-4.4 2.5-9.5 4-15 4s-10.6-1.5-15-4c-4.4 2.5-9.5 4-15 4s-10.6-1.5-15-4c-4.4 2.5-9.5 4-15 4s-10.6-1.5-15-4c-4.4 2.5-9.5 4-15 4s-10.6-1.5-15-4c-4.4 2.5-9.5 4-15 4s-10.6-1.5-15-4c-4.4 2.5-9.5 4-15 4s-10.6-1.5-15-4c-4.4 2.5-9.5 4-15 4s-10.6-1.5-15-4c-4.4 2.5-9.5 4-15 4s-10.6-1.5-15-4c-4.4 2.5-9.5 4-15 4s-10.6-1.5-15-4c-4.4 2.5-9.5 4-15 4s-10.6-1.5-15-4c-4.4 2.5-9.5 4-15 4s-10.6-1.5-15-4c-4.4 2.5-9.5 4-15 4s-10.6-1.5-15-4c-4.4 2.5-9.5 4-15 4s-10.6-1.5-15-4c-4.4 2.5-9.5 4-15 4s-10.6-1.5-15-4c-4.4 2.5-9.5 4-15 4s-10.6-1.5-15-4c-4.4 2.5-9.5 4-15 4s-10.6-1.5-15-4c-4.4 2.5-9.5 4-15 4s-10.6-1.5-15-4c-4.4 2.5-9.5 4-15 4s-10.6-1.5-15-4c-4.4 2.5-9.5 4-15 4s-10.6-1.5-15-4c-4.4 2.5-9.5 4-15 4s-10.6-1.5-15-4c-4.4 2.5-9.5 4-15 4s-10.6-1.5-15-4c-4.4 2.5-9.5 4-15 4s-10.6-1.5-15-4c-4.4 2.5-9.5 4-15 4s-10.6-1.5-15-4c-4.4 2.5-9.5 4-15 4s-10.6-1.5-15-4c-4.4 2.5-9.5 4-15 4s-10.6-1.5-15-4c-4.4 2.5-9.5 4-15 4s-10.6-1.5-15-4c-4.4 2.5-9.5 4-15 4s-10.6-1.5-15-4c-4.4 2.5-9.5 4-15 4s-10.6-1.5-15-4c-4.4 2.5-9.5 4-15 4s-10.6-1.5-15-4c-4.4 2.5-9.5 4-15 4s-10.6-1.5-15-4c-4.4 2.5-9.5 4-15 4s-10.6-1.5-15-4c-4.4 2.5-9.5 4-15 4s-10.6-1.5-15-4c-4.4 2.5-9.5 4-15 4s-10.6-1.5-15-4c-4.4 2.5-9.5 4-15 4s-10.6-1.5-15-4c-4.4 2.5-9.5 4-15 4s-10.6-1.5-15-4c-4.4 2.5-9.5 4-15 4s-10.6-1.5-15-4c-4.4 2.5-9.5 4-15 4s-10.6-1.5-15-4c-4.4 2.5-9.5 4-15 4s-10.6-1.5-15-4c-4.4 2.5-9.5 4-15 4s-10.6-1.5-15-4c-4.4 2.5-9.5 4-15 4s-10.6-1.5-15-4c-4.4 2.5-9.5 4-15 4s-10.6-1.5-15-4c-4.4 2.5-9.5 4-15 4s-10.6-1.5-15-4c-4.4 2.5-9.5 4-15 4s-10.6-1.5-15-4c-4.4 2.5-9.5 4-15 4s-10.6-1.5-15-4c-4.4 2.5-9.5 4-15 4s-10.6-1.5-15-4c-4.4 2.5-9.5 4-15 4s-10.6-1.5-15-4c-4.4 2.5-9.5 4-15 4s-10.6-1.5-15-4c-4.4 2.5-9.5 4-15 4s-10.6-1.5-15-4c-4.4 2.5-9.5 4-15 4s-10.6-1.5-15-4c-4.4 2.5-9.5 4-15 4s-10.6-1.5-15-4c-4.4 2.5-9.5 4-15 4s-10.6-1.5-15-4c-4.4 2.5-9.5 4-15 4s-10.6-1.5-15-4c-4.4 2.5-9.5 4-15 4s-10.6-1.5-15-4c-4.4 2.5-9.5 4-15 4s-10.6-1.5-15-4c-4.4 2.5-9.5 4-15 4s-10.6-1.5-15-4c-4.4 2.5-9.5 4-15 4s-10.6-1.5-15-4c-4.4 2.5-9.5 4-15 4s-10.6-1.5-15-4c-4.4 2.5-9.5 4-15 4s-10.6-1.5-15-4c-4.4 2.5-9.5 4-15 4s-10.6-1.5-15-4c-4.4 2.5-9.5 4-15 4s-10.6-1.5-15-4c-4.4 2.5-9.5 4-15 4s-10.6-1.5-15-4c-4.4 2.5-9.5 4-15 4s-10.6-1.5-15-4c-4.4 2.5-9.5 4-15 4s-10.6-1.5-15-4c-4.4 2.5-9.5 4-15 4s-10.6-1.5-15-4c-4.4 2.5-9.5 4-15 4s-10.6-1.5-15-4c-4.4 2.5-9.5 4-15 4s-10.6-1.5-15-4c-4.4 2.5-9.5 4-15 4s-10.6-1.5-15-4c-4.4 2.5-9.5 4-15 4s-10.6-1.5-15-4c-4.4 2.5-9.5 4-15 4s-10.6-1.5-15-4c-4.4 2.5-9.5 4-15 4s-10.6-1.5-15-4c-4.4 2.5-9.5 4-15 4s-10.6-1.5-15-4c-4.4 2.5-9.5 4-15 4s-10.6-1.5-15-4c-4.4 2.5-9.5 4-15 4s-10.6-1.5-15-4c-4.4 2.5-9.5 4-15 4s-10.6-1.5-15-4c-4.4 2.5-9.5 4-15 4s-10.6-1.5-15-4c-4.4 2.5-9.5 4-15 4s-10.6-1.5-15-4c-4.4 2.5-9.5 4-15 4s-10.6-1.5-15-4c-4.4 2.5-9.5 4-15 4s-10.6-1.5-15-4c-4.4 2.5-9.5 4-15 4s-10.6-1.5-15-4c-4.4 2.5-9.5 4-15 4s-10.6-1.5-15-4c-4.4 2.5-9.5 4-15 4s-10.6-1.5-15-4c-4.4 2.5-9.5 4-15 4s-10.6-1.5-15-4c-4.4 2.5-9.5 4-15 4s-10.6-1.5-15-4c-4.4 2.5-9.5 4-15 4s-10.6-1.5-15-4c-4.4 2.5-9.5 4-15 4s-10.6-1.5-15-4c-4.4 2.5-9.5 4-15 4s-10.6-1.5-15-4c-4.4 2.5-9.5 4-15 4s-10.6-1.5-15-4c-4.4 2.5-9.5 4-15 4s-10.6-1.5-15-4c-4.4 2.5-9.5 4-15 4s-10.6-1.5-15-4c-4.4 2.5-9.5 4-15 4s-10.6-1.5-15-4c-4.4 2.5-9.5 4-15 4s-10.6-1.5-15-4c-4.4 2.5-9.5 4-15 4s-10.6-1.5-15-4c-4.4 2.5-9.5 4-15 4s-10.6-1.5-15-4c-4.4 2.5-9.5 4-15 4s-10.6-1.5-15-4c-4.4 2.5-9.5 4-15 4s-10.6-1.5-15-4c-4.4 2.5-9.5 4-15 4s-10.6-1.5-15-4c-4.4 2.5-9.5 4-15 4s-10.6-1.5-15-4c-4.4 2.5-9.5 4-15 4s-10.6-1.5-15-4c-4.4 2.5-9.5 4-15 4s-10.6-1.5-15-4c-4.4 2.5-9.5 4-15 4s-10.6-1.5-15-4c-4.4 2.5-9.5 4-15 4s-10.6-1.5-15-4c-4.4 2.5-9.5 4-15 4s-10.6-1.5-15-4c-4.4 2.5-9.5 4-15 4s-10.6-1.5-15-4c-4.4 2.5-9.5 4-15 4s-10.6-1.5-15-4c-4.4 2.5-9.5 4-15 4s-10.6-1.5-15-4c-4.4 2.5-9.5 4-15 4s-10.6-1.5-15-4c-4.4 2.5-9.5 4-15 4s-10.6-1.5-15-4c-4.4 2.5-9.5 4-15 4s-10.6-1.5-15-4c-4.4 2.5-9.5 4-15 4s-10.6-1.5-15-4c-4.4 2.5-9.5 4-15 4v16h3300v-16c-5.5 0-10.6-1.5-15-4z"/>
</svg>
